<?xml version="1.0" standalone="no"?><!DOCTYPE svg PUBLIC "-//W3C//DTD SVG 1.1//EN" "http://www.w3.org/Graphics/SVG/1.1/DTD/svg11.dtd"><svg t="1584100304192" class="icon" viewBox="0 0 1024 1024" version="1.1" xmlns="http://www.w3.org/2000/svg" p-id="6873" xmlns:xlink="http://www.w3.org/1999/xlink" width="64" height="64"><defs><style type="text/css"></style></defs><path d="M623.9 346.7c-7.6 0-14.6-5-16.8-12.7-2.7-9.3 2.6-19.1 11.9-21.8 35.4-10.3 47-60.4 50.4-100.6 4.1-47.5-2.1-92.5-2.2-93-1.4-9.6 5.3-18.5 14.9-19.8 9.6-1.3 18.5 5.3 19.8 14.9 0.3 2 6.8 49.4 2.4 100.9-4.4 51.1-21 115.4-75.6 131.3-1.5 0.5-3.1 0.8-4.8 0.8z" fill="#83394A" p-id="6874"></path><path d="M200.1 328.6c-5.6 0-10.5-3.5-12.4-8.8-12-33.8-31.7-53.7-64.1-64.6-5.1-1.7-8.6-6.3-9-11.6-0.3-5.3 2.6-10.4 7.4-12.7 1.9-0.9 3.7-1.8 5.5-2.7 13.8-6.6 25.7-12.3 34.7-21.2 9.5-9.4 16.7-20.8 24.8-39.5 2-4.5 6.3-7.6 11.2-7.9 4.9-0.3 9.6 2.2 12.1 6.4 24.3 40.8 24.3 40.8 66.4 65.7 4.4 2.6 6.9 7.5 6.4 12.6s-3.9 9.4-8.7 11.1c-31 11.1-50.7 31.5-62 64.1-1.7 5.5-6.7 9.1-12.3 9.1z m-41.7-86.4c17.4 10.2 31.1 23.9 41.6 41.8 10.5-17.9 24.5-31.9 42.1-42.2-21.2-13.3-28.8-20.8-41.9-41.6-5.1 8.8-11.4 17.7-19.5 25.7-6.7 6.6-14.3 11.8-22.3 16.3z" fill="#EFD080" p-id="6875"></path><path d="M504.8 928c-60.5 0-120.9 0.1-181.4-0.1-7.8 0-20 3-19.7-9.2 0.3-11.4 12.3-9.2 20.3-9.2 120.9-0.1 241.8-0.1 362.7 0 7.2 0 18.1-2.5 18.5 8.4 0.4 12.5-11.2 10-19.1 10-60.4 0.2-120.8 0.1-181.3 0.1zM725.6 876c-30.9 0-61.7 0.1-92.6-0.1-7.4 0-18.1 1.6-18.2-8.9-0.1-10.4 10.4-9.2 18-9.2 62.5-0.1 125-0.1 187.5 0.1 7.3 0 17.8-2 17.1 9.7-0.6 10.3-10.5 7.1-16.9 7.1-31.6 0.3-63.2 0.1-94.8 0.1-0.1 0.4-0.1 0.8-0.1 1.2z" fill="#E5BB54" p-id="6876"></path><path d="M775.5 820.4h-0.7c-14.3-0.2-28.7-6.6-39.3-17.6-10.6-11-16.6-25.5-16.3-39.8 0.3-14.5 6.8-28.9 18-39.6 11-10.5 25.3-16.3 39.4-16 30.3 0.7 55.6 26.9 55.3 57.2-0.1 14.4-6.5 28.8-17.3 39.4-10.7 10.4-24.9 16.4-39.1 16.4z m-0.1-86.7c-6.9 0-14.2 3.2-20 8.7-6.1 5.9-9.8 13.6-9.9 21.1-0.1 7.4 3.1 15 8.9 21 5.8 6 13.4 9.5 20.7 9.6h0.4c7.4 0 14.9-3.2 20.6-8.9 5.9-5.8 9.3-13.3 9.4-20.8 0.2-15.9-13.7-30.2-29.6-30.6-0.2-0.1-0.3-0.1-0.5-0.1z m43.3 30.7z" fill="#EC8092" p-id="6877"></path><path d="M911.5 742.8c-1.5 8-6 13.3-14 13.1-7.8-0.2-13.4-5-13.4-13 0.1-8.8 5.5-14.2 14.7-13.7 8.3 0.3 11.5 6.4 12.7 13.6z" fill="#986242" p-id="6878"></path><path d="M853.1 814.4c9.1 1.9 15.8 4.6 15.8 14.5 0 9.1-4 14.2-13.6 14.8-9.8 0.6-14.3-5.3-15.1-13.6-0.8-9 6.3-12.8 12.9-15.7z" fill="#874F41" p-id="6879"></path><path d="M644.4 361.7c-53.4-53.5-127.7-85.2-211-74.2-55.3 7.3-108.2 36.5-140.1 82.2-40.3 57.7-43.8 133.2-72.8 197.3-23.8 52.5-65.7 102.5-58.6 159.7 5.6 45.5 42.4 81.8 83.5 102.1 66.8 33 146 32.3 218.7 15.9 87.8-19.8 173.7-64.3 223.9-138.9 75.3-111.8 43.6-256.9-43.6-344.1z" fill="#EC8092" p-id="6880"></path><path d="M370.1 873.2c-43 0-89.3-7.3-132.5-28.7-52.5-26-87.3-69.2-93.1-115.6-5.9-47.4 16.8-88.5 38.8-128.2 7.8-14.1 15.1-27.4 21.3-40.9 11.2-24.8 18.4-51.3 26-79.4 11.2-41.3 22.7-84 48.4-120.7 33.5-47.9 90.4-81.4 152.2-89.6 83.5-11 163.7 17.1 225.7 79.2 46.6 46.6 77.7 107.9 87.6 172.5 10.8 70-3.7 137-42 193.7-47.8 70.9-131.1 122.9-234.6 146.2-27.9 6.4-61.7 11.5-97.8 11.5z m96.1-570.3c-10.1 0-20.2 0.7-30.5 2-52.2 6.9-100.1 34.9-128 74.9-22.1 31.7-32.4 69.6-43.3 109.8-7.6 28.2-15.5 57.3-27.9 84.7-6.7 14.8-14.8 29.4-22.5 43.4-20.1 36.4-39.1 70.7-34.7 106.8 4.3 34.7 31.9 67.8 73.8 88.5 70.2 34.7 151.4 27 207 14.5 94.7-21.4 170.5-68.1 213.2-131.6 33.2-49.3 45.8-107.6 36.4-168.8-8.8-57.4-36.4-111.7-77.8-153.1-46.4-46.4-104.4-71.1-165.7-71.1z" fill="#83394A" p-id="6881"></path><path d="M452.6 161.2s41.5 127.9 79.5 155.6c38 27.7-114.1-3.5-127.9-51.9s-10.3-86.5 48.4-103.7z" fill="#45CE99" p-id="6882"></path><path d="M528.9 344.7h-1.4c-30.7-0.7-126.7-27.7-140.2-75-12.2-42.6-19.2-102 60.3-125.4 9.1-2.7 18.7 2.4 21.7 11.4 15.4 47.4 48.8 129.1 73.1 146.8 14.3 10.4 14.6 20.7 12.3 27.6-4 11.9-16 14.6-25.8 14.6z m-87.1-160.9c-27.7 12.9-32.7 34.1-20.7 76.3 2.3 7.9 16.8 21.9 50.2 35.1 9.3 3.7 18.3 6.6 26.4 8.8-24.5-36-45.8-91.6-55.9-120.2z" fill="#83394A" p-id="6883"></path><path d="M686.1 377s129.3 36.9 173.5 20.8c44.2-16.1-66.5 92.8-114.4 77.3s-77.6-39.6-59.1-98.1z" fill="#45CE99" p-id="6884"></path><path d="M755 494c-5.3 0-10.5-0.7-15.3-2.3-42.2-13.7-95.4-41-70.4-120 2.9-9.1 12.4-14.2 21.6-11.6 47.9 13.7 134.4 31.5 162.7 21.2 16.7-6.1 25.4-0.5 29.7 5.2 4.4 5.8 7.5 15.8-3.1 30.7-16 22.5-78.6 76.8-125.2 76.8z m-56.2-95.4c-4.8 30.2 10 46.2 51.8 59.7 7.9 2.5 27.5-1.7 57.1-22.1 8.2-5.7 15.6-11.5 22-17-43.5 0.3-101.5-13-130.9-20.6z" fill="#83394A" p-id="6885"></path><path d="M619.6 177.5c-0.6-1-1.3-2-2.1-2.9-3.2-3.7-7.5-6.2-12-8.2-46.7-21.2-81.6 5.4-95.3 50.4-30.6 100 56 127.1 56 127.1s73.2 47.7 87.1-25.4c9-47.4-13-86.9-29.1-130.8-1.4-3.6-2.7-7.1-4.6-10.2z" fill="#45CE99" p-id="6886"></path><path d="M612.4 376.7c-24.3 0-47.1-12.7-54.1-17-15.7-6.1-97-43.1-64.9-148 9.4-30.7 27.3-53.4 50.4-63.8 20.8-9.4 44.6-8.5 69 2.5 5 2.3 12.4 6.1 18.1 12.9 1.3 1.6 2.6 3.3 3.7 5.1 2.9 4.7 4.6 9.4 6 13.2 2.9 7.8 6 15.7 9 23.3 14.3 35.9 29.1 73.1 20.8 116.8-6.1 32-22.4 45.2-35.1 50.6-7.5 3.1-15.2 4.4-22.9 4.4z m-38.3-200.2c-5.6 0-11 1.1-15.9 3.3-13.8 6.2-24.9 21.2-31.3 42.1-25.2 82.4 41.5 104.3 44.4 105.2 1.5 0.5 3 1.2 4.3 2 7.3 4.7 31.6 16.9 45.9 10.8 7-3 11.8-11.3 14.4-24.8 6.4-33.7-5.4-63.2-19-97.3-3.1-7.8-6.4-16-9.4-24.2-0.9-2.6-1.9-5.3-2.9-6.9-0.2-0.3-0.4-0.6-0.5-0.7-0.9-1-2.8-2.2-5.9-3.6-8.5-4-16.6-5.9-24.1-5.9z" fill="#83394A" p-id="6887"></path><path d="M767.3 268.7c-27.9-12.8-62.6-1.4-89.5 9.5-13.3 5.4-95.9 43.7-94.5 56.5 0 0 4.9 42.2 99.3 80.8 68.9 28.2 155.8-97.6 93.9-141.5-2.9-2.1-6-3.8-9.2-5.3z" fill="#45CE99" p-id="6888"></path><path d="M703.4 437.2c-9.1 0-18.4-1.7-27.4-5.4-41.8-17.1-72.7-37.2-91.8-59.8-15.7-18.5-18-32.6-18.3-35.3-1.8-15.2 10.6-26.9 50.8-48.5 22.4-12 46.9-23.2 54.4-26.3 30.5-12.4 69.8-24.7 103.5-9.2 4.2 1.9 8.3 4.3 12 7 32.4 23 37.7 66.4 13.4 110.5-19.7 36.1-57.5 67-96.6 67zM603 337.5c5.7 11 24.9 36.6 86.3 61.8 15.6 6.4 31.4 0.5 41.9-5.6 15-8.8 29-23.5 38.3-40.4 4.1-7.5 23.5-46.1-3-64.9-2-1.4-4.1-2.7-6.4-3.7-21.4-9.8-51.7 0.1-75.6 9.8-20.5 8.3-66.6 31.5-81.5 43z" fill="#83394A" p-id="6889"></path><path d="M376.4 494.1c-6.2 0-12.1-3.2-15.4-9-4.7-8.4-1.7-19.1 6.7-23.8 0.5-0.3 13.6-8.1 18-21.5 3.1-9.2 13-14.2 22.2-11.1 9.2 3.1 14.2 13 11.1 22.2-8.7 26.3-31.5 39.6-34.1 41.1-2.6 1.4-5.6 2.1-8.5 2.1zM497.2 525.2c-6.2 0-12.1-3.2-15.4-9-4.7-8.4-1.7-19.1 6.7-23.8 0.5-0.3 13.6-8.1 18-21.5 3.1-9.2 13-14.2 22.2-11.1 9.2 3.1 14.2 13 11.1 22.2-8.7 26.3-31.5 39.6-34.1 41.1-2.7 1.4-5.7 2.1-8.5 2.1zM642.3 551.4c-6.2 0-12.1-3.2-15.4-9-4.7-8.4-1.7-19.1 6.7-23.8 0.5-0.3 13.6-8.1 18-21.5 3.1-9.2 13-14.2 22.2-11.1 9.2 3.1 14.2 13 11.1 22.2-8.7 26.3-31.5 39.6-34.1 41.1-2.7 1.4-5.6 2.1-8.5 2.1z" fill="#B24061" p-id="6890"></path><path d="M577.1 715.8c-6.2 0-12.1-3.2-15.4-9-4.7-8.4-1.7-19.1 6.7-23.8 0.4-0.3 13.6-8.1 18-21.5 3.1-9.2 13-14.2 22.2-11.1 9.2 3.1 14.2 13 11.1 22.2-8.7 26.3-31.5 39.6-34.1 41.1-2.6 1.4-5.6 2.1-8.5 2.1z" fill="#B24061" p-id="6891"></path><path d="M497.2 637.7c-6.2 0-12.1-3.2-15.4-9-4.7-8.4-1.7-19.1 6.7-23.8 0.5-0.3 13.6-8.1 18-21.5 3.1-9.2 13-14.2 22.2-11.1 9.2 3.1 14.2 13 11.1 22.2-8.7 26.3-31.5 39.6-34.1 41.1-2.7 1.4-5.7 2.1-8.5 2.1z" fill="#B24061" p-id="6892"></path><path d="M384.5 603.7c-6.2 0-12.1-3.2-15.4-9-4.7-8.4-1.7-19.1 6.7-23.8 0.5-0.3 13.6-8.1 18-21.5 3.1-9.2 13-14.2 22.2-11.1 9.2 3.1 14.2 13 11.1 22.2-8.7 26.3-31.5 39.6-34.1 41.1-2.7 1.4-5.6 2.1-8.5 2.1z" fill="#B24061" p-id="6893"></path><path d="M371.5 731.4c-6.2 0-12.1-3.2-15.4-9-4.7-8.4-1.7-19.1 6.7-23.8 0.5-0.3 13.6-8.1 18-21.5 3.1-9.2 13-14.2 22.2-11.1 9.2 3.1 14.2 13 11.1 22.2-8.7 26.3-31.5 39.6-34.1 41.1-2.7 1.4-5.6 2.1-8.5 2.1z" fill="#B24061" p-id="6894"></path><path d="M253.3 715.8c-6.2 0-12.1-3.2-15.4-9-4.7-8.4-1.7-19.1 6.7-23.8 0.5-0.3 13.6-8.1 18-21.5 3.1-9.2 13-14.2 22.2-11.1 9.2 3.1 14.2 13 11.1 22.2-8.7 26.3-31.5 39.6-34.1 41.1-2.6 1.4-5.6 2.1-8.5 2.1z" fill="#B24061" p-id="6895"></path></svg>